<svg xmlns="http://www.w3.org/2000/svg" viewBox="0 0 94.93 77.38"><defs><style>.cls-1,.cls-2{fill:#221f20;}.cls-2{stroke:#221f20;stroke-miterlimit:10;}.cls-3{fill:#fff;}</style></defs><g id="Layer_2" data-name="Layer 2"><g id="Layer_1-2" data-name="Layer 1"><path class="cls-1" d="M8.89,77.38a25,25,0,0,1-4.55-.3A5.65,5.65,0,0,1,2,76,4.56,4.56,0,0,1,.46,73.88,11.06,11.06,0,0,1,0,70.35V65.12a13,13,0,0,1,.45-3.81,4.48,4.48,0,0,1,1.47-2.23,5.74,5.74,0,0,1,2.42-1,24,24,0,0,1,4.52-.31h6.41a24,24,0,0,1,4.53.31,5.75,5.75,0,0,1,2.41,1,4.51,4.51,0,0,1,1.46,2.18,11.75,11.75,0,0,1,.46,3.63v5.34a11.7,11.7,0,0,1-.46,3.63A4.51,4.51,0,0,1,22.21,76a5.61,5.61,0,0,1-2.38,1,24.86,24.86,0,0,1-4.56.3ZM16.4,59.85H7.73a10,10,0,0,0-2.86.32A3.14,3.14,0,0,0,3.3,61.24a3.19,3.19,0,0,0-.58,1.28A12.77,12.77,0,0,0,2.55,65v5a12.58,12.58,0,0,0,.17,2.46,3.19,3.19,0,0,0,.58,1.28,3,3,0,0,0,1.57,1.07,9.65,9.65,0,0,0,2.86.32H16.4a9.65,9.65,0,0,0,2.86-.32,3,3,0,0,0,1.57-1.07,3.16,3.16,0,0,0,.56-1.23,10.63,10.63,0,0,0,.17-2.22V64.69a10.63,10.63,0,0,0-.17-2.22,3.23,3.23,0,0,0-.56-1.23,3.14,3.14,0,0,0-1.57-1.07A10,10,0,0,0,16.4,59.85Z"/><path class="cls-1" d="M41.88,68.29a2.8,2.8,0,0,0-.83-2.3c-.53-.4-1.71-.6-3.55-.6H34.33a6.11,6.11,0,0,0-3.39.71,2.66,2.66,0,0,0-1,2.34v3.14a3.82,3.82,0,0,0,.92,3,5.65,5.65,0,0,0,3.53.8H37.6a6.28,6.28,0,0,0,3.49-.69A2.84,2.84,0,0,0,42,72.19V72h2v.36a4.59,4.59,0,0,1-1.42,3.76,7.05,7.05,0,0,1-4.54,1.18H34.23A7.67,7.67,0,0,1,29.35,76a4.79,4.79,0,0,1-1.59-4V68.66a4.81,4.81,0,0,1,1.59-4,7.7,7.7,0,0,1,4.88-1.28h3.22c2.31,0,3.95.35,4.94,1a4,4,0,0,1,1.48,3.48v.35Z"/><path class="cls-1" d="M50.59,63.59h8.93v1.83h-9v7.12a2.93,2.93,0,0,0,.72,2.28c.48.41,1.58.61,3.3.61a5.2,5.2,0,0,0,2.79-.51,2.68,2.68,0,0,0,.71-2.23V71H60v1.74a4.39,4.39,0,0,1-1.3,3.61c-.86.68-2.39,1-4.58,1a9.89,9.89,0,0,1-2.8-.33,4.19,4.19,0,0,1-1.79-1,2.87,2.87,0,0,1-.75-1.22,8.79,8.79,0,0,1-.22-2.38v-7H45.61V63.59h2.91V60.48h2.07Z"/><path class="cls-1" d="M69,77.33c-2.33,0-4-.46-5-1.37s-1.5-2.46-1.5-4.62V69.21c0-2.07.51-3.56,1.52-4.46s2.66-1.34,5-1.34H73.7c2.31,0,4,.45,5,1.34s1.52,2.39,1.52,4.46v2.13q0,3.24-1.5,4.62c-1,.91-2.66,1.37-5,1.37Zm.56-2h3.53c2,0,3.28-.29,3.93-.86s1-1.7,1-3.36V69.5c0-1.62-.32-2.7-1-3.27s-2-.84-3.92-.84H69.59c-2,0-3.26.28-3.91.84s-1,1.65-1,3.27v1.61q0,2.49,1,3.36C66.32,75,67.62,75.33,69.59,75.33Z"/><path class="cls-2" d="M68.76,27.22a8.28,8.28,0,0,0-4.18-4.59c0-.43-.11-.87-.18-1.27v-.07A22.61,22.61,0,0,0,60.8,12.4,2.61,2.61,0,0,0,61,12c0-.13.12-.45.15-.58A11.57,11.57,0,0,0,61.29,9a8.77,8.77,0,0,0-9-8.53,8.24,8.24,0,0,0-5.65,2.68,21.78,21.78,0,0,0-3.63-.31,21,21,0,0,0-12.7,4.24h0a9.75,9.75,0,0,0-2.11-.24,8.76,8.76,0,0,0-9,8.51,8.25,8.25,0,0,0,2.45,5.85,23,23,0,0,0-.34,4,22.68,22.68,0,0,0,2.12,9.65c-.08.12-.12.22-.2.35a9.09,9.09,0,0,0-.75,2.52,9.19,9.19,0,0,0,1.55,6.63,8.23,8.23,0,0,0,5.58,3.47,7.91,7.91,0,0,0,1.18.09,8.25,8.25,0,0,0,4.92-1.65h0a21,21,0,0,0,7.24,1.28h.52a6.51,6.51,0,0,0,12.6-2.31,6.38,6.38,0,0,0-.32-2l.58-.46a21.84,21.84,0,0,0,3.82-4c.15,0,.72,0,.86,0a9.67,9.67,0,0,0,2.11-.5h0A8.77,8.77,0,0,0,68.76,27.22ZM57.39,32.67c-.13.27-.28.55-.46.86a1.15,1.15,0,0,1-.32,0h0a12.63,12.63,0,0,0-4.3.3,13,13,0,0,0-1.81.51,11.68,11.68,0,0,0-7.3,7.1l0,0a15,15,0,0,1-3.35-.38A5.37,5.37,0,0,0,40,39.47a4.82,4.82,0,0,0-4.58-5,4.46,4.46,0,0,0-3.69,2.06,15.11,15.11,0,0,1-1.85-2.37h0a12.72,12.72,0,0,0,1.78-3.95,12.29,12.29,0,0,0,.41-1.84,11.62,11.62,0,0,0-2.91-9.91A15.72,15.72,0,0,1,33,13.69,12.74,12.74,0,0,0,37,14.84a12.69,12.69,0,0,0,1.88.14,11.61,11.61,0,0,0,9.36-4.27,15.79,15.79,0,0,1,6.24,3.92,14.38,14.38,0,0,0-.73,3.59,14.53,14.53,0,0,0,0,1.88c.2,3.91,2,7.43,4.83,9.2h0A15.7,15.7,0,0,1,57.39,32.67Z"/><path class="cls-1" d="M59.51,18.74a31.08,31.08,0,0,0-.13,5.42c0,.24,0,.5,0,.77a15.63,15.63,0,0,1-.12,1.93l-.22,1.71a11.72,11.72,0,0,1-1.4,4.24c-.12.23-.24.47-.38.72l.51,0c.44-.05.84-.14,1-.17A11,11,0,0,0,61,32.47,7.66,7.66,0,0,0,63.72,30a4.29,4.29,0,0,0,.52-1.61,27.58,27.58,0,0,0,.2-3.78c0-.64-.06-1.25-.13-1.82s-.11-.91-.18-1.35v0a22.44,22.44,0,0,0-3.43-8.62A38,38,0,0,0,59.51,18.74Z"/><path class="cls-3" d="M31.74,37.15a7.19,7.19,0,0,0-.52,1.64c0,.26-.38,3.77,2.67,5.1A2.54,2.54,0,0,1,35,40.26a2.94,2.94,0,0,1,2,0h0s.27.1.39.16a11.68,11.68,0,0,0,2.06.65,5.28,5.28,0,0,0,.23-1.55C39.75,34.48,33.8,33.16,31.74,37.15Z"/><path class="cls-3" d="M51.81,4.64a6.22,6.22,0,0,1,1.3.77l.19.16a7.93,7.93,0,0,1,2.21,5.27,8.73,8.73,0,0,1-.46,3.28c-.08.18-.16.36-.23.54a13.92,13.92,0,0,0-.74,3.6,12.38,12.38,0,0,0,0,1.84,11.58,11.58,0,0,0,4.64,9A19,19,0,0,0,59,27h0V26.9a.28.28,0,0,1,0-.09c0-.3.06-.61.08-.91v0a16,16,0,0,0,0-1.69,31.5,31.5,0,0,1,.12-5.46,29.7,29.7,0,0,1,1.3-6.32l.09-.27h0c.07-.2.24-.79.27-.93h0A9.71,9.71,0,0,0,61,9.09,8.49,8.49,0,0,0,52.36.81,8,8,0,0,0,47,3.27c.36.07.74.18,1.16.26A21.56,21.56,0,0,1,51.81,4.64Z"/><path class="cls-1" d="M37.83,9.19c1.39.22,3,.33,3.24.34,1.1.07,1.7.07,2.17.06a15.94,15.94,0,0,1,5,.83l.18.07a16.09,16.09,0,0,1,6.18,3.87,3.45,3.45,0,0,1,.14-.34,8.11,8.11,0,0,0,.44-3.16,7.85,7.85,0,0,0-2-5l-.11-.1-.51-.37c-.4-.21-.35-.19-.75-.38a20.16,20.16,0,0,0-2.8-1c-.29-.08-.58-.17-.91-.25s-.85-.2-1.39-.3l-.27,0a20.18,20.18,0,0,0-3.4-.29,20.8,20.8,0,0,0-12.33,4l1.63.63A32.9,32.9,0,0,0,37.83,9.19Z"/><path class="cls-3" d="M22.39,18.52c0-.14.38-1.14.41-1.24.17-.45.5-1.22.55-1.31s.51-.74.58-.81a7.22,7.22,0,0,1,4.77-2.32l.52-.05a6.86,6.86,0,0,1,1.77.08c.06,0,.73.13.81.15l.78.23.62.25a12.79,12.79,0,0,0,3.88,1.08,12.17,12.17,0,0,0,1.84.13A11.36,11.36,0,0,0,48,10.64h0l-1.12-.31-1.21-.25c-.14,0-1.13-.14-1.22-.14s-1.47,0-1.63,0c-.76,0-1.74-.05-2.36-.1-1.36-.1-2.66-.31-2.67-.31a33.81,33.81,0,0,1-4.22-.94C32.8,8.31,32,8,30.9,7.59a4.81,4.81,0,0,0-.54-.16,9.55,9.55,0,0,0-2.08-.25,8.49,8.49,0,0,0-8.72,8.23,7.94,7.94,0,0,0,2.23,5.5C21.81,20.84,22.36,18.62,22.39,18.52Z"/><path class="cls-1" d="M24.08,33.84a31.45,31.45,0,0,0,2.12-5.22,34,34,0,0,0,1-4.22c.05-.35.08-.86.16-1.33a16,16,0,0,1,5.29-9.49l-.27-.09L32,13.38a2.93,2.93,0,0,0-.37-.1l-.76-.14c-.21,0-.45-.05-.85-.08l-.83,0a8.13,8.13,0,0,0-3.27.86,6.77,6.77,0,0,0-2,1.64c-.08.1-.3.45-.36.54a1.24,1.24,0,0,1-.1.2A21.39,21.39,0,0,0,22,21.23a23.44,23.44,0,0,0-.35,4,22.45,22.45,0,0,0,2,9.35S24,34.07,24.08,33.84Z"/><path class="cls-3" d="M28.59,37.14a8.89,8.89,0,0,1,1-3l.06-.09a12.61,12.61,0,0,0,1.74-3.86c.92-3.21.82-8.22-2.34-11.38a16.3,16.3,0,0,0-.85,2.13,14.6,14.6,0,0,0-.58,2.48c-.05.36-.1.72-.16,1.07a32.52,32.52,0,0,1-1,4.26A29.13,29.13,0,0,1,23.79,35l-.4.79a9.08,9.08,0,0,0,1,8.48,7.94,7.94,0,0,0,11.14,1.95A30.57,30.57,0,0,1,30.93,44C30.46,43.66,28,41.51,28.59,37.14Z"/><path class="cls-3" d="M55.57,43.26c-.06-.18-.23-.56-.25-.6l0,0a3.19,3.19,0,0,0-5.58-.24c2.72.55,3,3.12.44,4l-1.86.58a14.75,14.75,0,0,1-4.41.64c2.51,6.29,12,4.53,12-2.3a6.22,6.22,0,0,0-.27-1.82Z"/><path class="cls-1" d="M53.46,39.44l-1,.22c-.89.2-2.55.69-2.6.71-.31.13-1.17.41-1.43.51a11.15,11.15,0,0,1-2,.57h0a17,17,0,0,1-2,.31H43.06a15.67,15.67,0,0,1-3.36-.39l-.12,0h0a18.32,18.32,0,0,1-2.22-.69h0c-.13,0-2-.85-3.07.47a2.35,2.35,0,0,0-.17,2.58,2.77,2.77,0,0,0,.22.37l.23.34-.39-.12a5,5,0,0,1-3.29-4.81c0-.12,0-.64.05-.72l.09-.51c0-.07.13-.47.16-.54s.25-.6.28-.66.12-.23.14-.27a15.48,15.48,0,0,1-1.85-2.34c-.14.27-.31.64-.31.65-.11.27-.25.67-.25.69-.16.48-1.22,4.2.94,7a5,5,0,0,0,.95.94,22.83,22.83,0,0,0,4.19,2l.8.3a24.62,24.62,0,0,0,7.59,1.2h0a22.52,22.52,0,0,0,6-1.08l.26-.08c2.39-.66,2.23-3.1-.5-3.52l-.19,0,0-.09a3.58,3.58,0,0,1,3.13-2,3.46,3.46,0,0,1,3.11,1.94l0,.06.05.12.14.33.49-.39a21.67,21.67,0,0,0,3.65-3.76c-.28,0-.56,0-.84,0A32.25,32.25,0,0,0,53.46,39.44Z"/><path class="cls-3" d="M64.63,23c0,.39.11,2,.11,2.25a25.8,25.8,0,0,1-.35,4l-.09.29a7.68,7.68,0,0,1-4.46,3.8,8.46,8.46,0,0,1-2.81.53h-.25c-.41,0-.75-.08-1.4-.08a14.55,14.55,0,0,0-3.05.36,12.5,12.5,0,0,0-1.77.51,11.4,11.4,0,0,0-7.12,6.86l1,0h0c.33,0,.63,0,.92-.09s.64-.1,1-.17a14.66,14.66,0,0,0,1.78-.53c.54-.2,1.05-.38,1.55-.54q1.29-.41,2.67-.72c.68-.15,1.34-.28,1.77-.35a32,32,0,0,1,4.93-.49h1.39a4.79,4.79,0,0,0,.63,0,9,9,0,0,0,2-.48h0C70.24,35.46,71,26.24,64.63,23Z"/><path class="cls-1" d="M83.91,56.72a.36.36,0,0,0,.37-.37V49.68a1.19,1.19,0,0,1,1.19-1.19h0a1.19,1.19,0,0,1,1.19,1.19v6.67a.36.36,0,0,0,.37.37h6.72a1.18,1.18,0,0,1,1.18,1.19h0a1.18,1.18,0,0,1-1.18,1.19H87a.36.36,0,0,0-.37.37v6.8a1.19,1.19,0,0,1-1.19,1.19h0a1.19,1.19,0,0,1-1.19-1.19v-6.8a.36.36,0,0,0-.37-.37H77.19A1.19,1.19,0,0,1,76,57.91h0a1.19,1.19,0,0,1,1.19-1.19Z"/></g></g></svg>