<svg xmlns="http://www.w3.org/2000/svg" xmlns:xlink="http://www.w3.org/1999/xlink" viewBox="0 0 96.19 79.18"><defs><style>.cls-1{fill:#fff;stroke:#fff;stroke-miterlimit:10;}.cls-2{fill:url(#radial-gradient);}.cls-3{fill:#f7a943;}.cls-4{fill:url(#radial-gradient-2);}.cls-5{fill:url(#radial-gradient-3);}.cls-6{fill:url(#radial-gradient-4);}.cls-7{fill:#4369a4;}.cls-8{fill:url(#linear-gradient);}</style><radialGradient id="radial-gradient" cx="67.49" cy="21.6" fx="46.430471549918494" r="21.15" gradientTransform="translate(-28.24 2.46) scale(1.06 1.05)" gradientUnits="userSpaceOnUse"><stop offset="0.49" stop-color="#fff"/><stop offset="0.61" stop-color="#fcfdfe"/><stop offset="0.69" stop-color="#f4f6fb"/><stop offset="0.75" stop-color="#e5ebf5"/><stop offset="0.81" stop-color="#d1daed"/><stop offset="0.86" stop-color="#b6c5e3"/><stop offset="0.91" stop-color="#95abd6"/><stop offset="0.96" stop-color="#6f8dc7"/><stop offset="0.96" stop-color="#6887c4"/><stop offset="1" stop-color="#3b6db4"/></radialGradient><radialGradient id="radial-gradient-2" cx="67.27" cy="21.9" fy="42.23228325210425" r="20.98" gradientTransform="translate(-28.24 2.52) scale(1.06 1.04)" gradientUnits="userSpaceOnUse"><stop offset="0.47" stop-color="#fff"/><stop offset="0.6" stop-color="#fcfdfe"/><stop offset="0.67" stop-color="#f4f7fb"/><stop offset="0.74" stop-color="#e5ecf5"/><stop offset="0.8" stop-color="#d0dced"/><stop offset="0.85" stop-color="#b5c8e3"/><stop offset="0.9" stop-color="#93afd6"/><stop offset="0.95" stop-color="#6c91c7"/><stop offset="1" stop-color="#3f70b6"/><stop offset="1" stop-color="#3b6db4"/></radialGradient><radialGradient id="radial-gradient-3" cx="67.53" cy="22.05" fx="87.5080817341904" r="21.04" gradientTransform="translate(-28.24 2) scale(1.06 1.07)" gradientUnits="userSpaceOnUse"><stop offset="0.49" stop-color="#fff"/><stop offset="0.58" stop-color="#fcfdfe"/><stop offset="0.66" stop-color="#f2f6fa"/><stop offset="0.72" stop-color="#e2e9f4"/><stop offset="0.78" stop-color="#cbd8eb"/><stop offset="0.84" stop-color="#adc2e0"/><stop offset="0.9" stop-color="#88a7d2"/><stop offset="0.95" stop-color="#5e87c1"/><stop offset="0.99" stop-color="#3b6db4"/></radialGradient><radialGradient id="radial-gradient-4" cx="67.54" cy="21.64" fy="0.41933904816943013" r="22.14" gradientTransform="translate(-28.24 2.52) scale(1.06 1.04)" gradientUnits="userSpaceOnUse"><stop offset="0.47" stop-color="#fff"/><stop offset="0.57" stop-color="#fcfdfe"/><stop offset="0.64" stop-color="#f2f6fa"/><stop offset="0.71" stop-color="#e2e9f4"/><stop offset="0.77" stop-color="#cbd8eb"/><stop offset="0.83" stop-color="#adc2e0"/><stop offset="0.89" stop-color="#89a7d2"/><stop offset="0.94" stop-color="#5e87c1"/><stop offset="0.98" stop-color="#3b6db4"/></radialGradient><linearGradient id="linear-gradient" x1="95.68" y1="48.17" x2="51.74" y2="102.8" gradientUnits="userSpaceOnUse"><stop offset="0" stop-color="#fff"/><stop offset="0.06" stop-color="#fcfdfe"/><stop offset="0.09" stop-color="#f4f6fb"/><stop offset="0.12" stop-color="#e5ebf5"/><stop offset="0.14" stop-color="#d1dbed"/><stop offset="0.17" stop-color="#b6c6e3"/><stop offset="0.19" stop-color="#95acd6"/><stop offset="0.21" stop-color="#6f8ec7"/><stop offset="0.22" stop-color="#6283c2"/><stop offset="0.33" stop-color="#5b7fc0"/><stop offset="0.5" stop-color="#4975b9"/><stop offset="0.6" stop-color="#3b6db4"/></linearGradient></defs><g id="Layer_2" data-name="Layer 2"><g id="Layer_1-2" data-name="Layer 1"><path class="cls-1" d="M70.12,27.38a8.4,8.4,0,0,0-4.35-4.62c0-.44-.11-.87-.18-1.28v-.07a22.16,22.16,0,0,0-3.74-8.94,1.94,1.94,0,0,0,.17-.42c0-.14.13-.45.15-.59a10.48,10.48,0,0,0,.19-2.38A9,9,0,0,0,53,.51a8.65,8.65,0,0,0-5.87,2.7,22.56,22.56,0,0,0-17,3.94h0A9.8,9.8,0,0,0,28,6.92c-5.14,0-9.32,3.84-9.32,8.56a8.15,8.15,0,0,0,2.54,5.87,23.47,23.47,0,0,0-.36,4,22.22,22.22,0,0,0,2.21,9.7l-.21.36A9.19,9.19,0,0,0,22.09,38a9,9,0,0,0,1.61,6.68,8.75,8.75,0,0,0,7,3.57,8.81,8.81,0,0,0,5.11-1.65h0a22.57,22.57,0,0,0,7.53,1.29h.54a6.77,6.77,0,0,0,6.32,4.22A6.66,6.66,0,0,0,57,45.51a6.23,6.23,0,0,0-.33-2l.6-.45a22.16,22.16,0,0,0,4-4,8.82,8.82,0,0,0,.9,0,10.35,10.35,0,0,0,2.19-.49h0C69.21,36.8,71.79,31.81,70.12,27.38ZM58.2,32.85c-.13.27-.29.56-.47.86a1,1,0,0,1-.34,0h0a13.64,13.64,0,0,0-4.47.3,13,13,0,0,0-1.88.52c-3.72,1.31-6.61,4-7.59,7.13l0,0a17.5,17.5,0,0,1-3.48-.38,5.23,5.23,0,0,0,.26-1.62,4.91,4.91,0,0,0-4.76-5,4.68,4.68,0,0,0-3.84,2.07,16.29,16.29,0,0,1-1.93-2.39h0a12.53,12.53,0,0,0,1.85-4,11.3,11.3,0,0,0,.42-1.85,11.41,11.41,0,0,0-3-10,15.89,15.89,0,0,1,3.91-4.79A13.81,13.81,0,0,0,37,14.93a13.68,13.68,0,0,0,2,.13c4,0,7.74-1.64,9.74-4.29a16.37,16.37,0,0,1,6.48,3.94,14,14,0,0,0-.76,3.61,13.11,13.11,0,0,0,0,1.89,11.52,11.52,0,0,0,5,9.25h0A14.82,14.82,0,0,1,58.2,32.85Z"/><path class="cls-2" d="M60.42,18.77a30.46,30.46,0,0,0-.13,5.45c0,.25,0,.5,0,.78a14.15,14.15,0,0,1-.13,1.94L60,28.66a11.52,11.52,0,0,1-1.46,4.27c-.12.23-.25.46-.4.72l.54,0c.46,0,.87-.14,1-.17a11.51,11.51,0,0,0,2.25-.85,8.79,8.79,0,0,0,1.51-1,8.89,8.89,0,0,0,1.35-1.5,4.22,4.22,0,0,0,.54-1.62,26.87,26.87,0,0,0,.21-3.81c0-.63-.06-1.25-.13-1.82s-.12-.92-.2-1.36v0a21.87,21.87,0,0,0-3.56-8.66A38.05,38.05,0,0,0,60.42,18.77Z"/><path class="cls-3" d="M31.56,37.29A7.53,7.53,0,0,0,31,38.94c0,.26-.4,3.79,2.77,5.13A2.52,2.52,0,0,1,35,40.42a3.19,3.19,0,0,1,2.14,0h0l.41.16a11.77,11.77,0,0,0,2.13.65,5,5,0,0,0,.25-1.55A4.43,4.43,0,0,0,31.56,37.29Z"/><path class="cls-3" d="M52.42,4.59a6.57,6.57,0,0,1,1.35.78l.2.16a7.84,7.84,0,0,1,2.29,5.3,8.45,8.45,0,0,1-.47,3.3,5.38,5.38,0,0,0-.24.55,13,13,0,0,0-.77,3.62,12.48,12.48,0,0,0,0,1.85,11.55,11.55,0,0,0,4.82,9,17.46,17.46,0,0,0,.31-2.1h0V27s0-.06,0-.09c0-.3.07-.61.09-.92v0a12.05,12.05,0,0,0,0-1.7,31.08,31.08,0,0,1,.14-5.5,29.43,29.43,0,0,1,1.34-6.35l.09-.27h0c.07-.2.25-.8.27-.94h0A9.33,9.33,0,0,0,62,9.07,8.69,8.69,0,0,0,53,.75a8.34,8.34,0,0,0-5.54,2.47c.37.07.77.17,1.21.25A24.16,24.16,0,0,1,52.42,4.59Z"/><path class="cls-4" d="M37.89,9.17c1.45.22,3.13.33,3.36.35,1.15.06,1.77.06,2.26.05a17.34,17.34,0,0,1,5.24.84l.19.07a16.81,16.81,0,0,1,6.42,3.89l.15-.35A8,8,0,0,0,56,10.85a7.84,7.84,0,0,0-2.11-5l-.11-.1-.52-.37A7.11,7.11,0,0,0,52.44,5a21.17,21.17,0,0,0-2.91-1c-.3-.08-.6-.17-.94-.25s-.89-.2-1.45-.3l-.28,0a22.92,22.92,0,0,0-3.53-.28A22.1,22.1,0,0,0,30.51,7.18l1.7.64A34,34,0,0,0,37.89,9.17Z"/><path class="cls-3" d="M21.83,18.55c.05-.14.4-1.15.44-1.24.17-.45.52-1.23.57-1.32s.53-.74.6-.82a7.61,7.61,0,0,1,5-2.33l.53-.05a7.52,7.52,0,0,1,1.85.08l.84.15.81.23.64.26a13.83,13.83,0,0,0,4,1.08,13.12,13.12,0,0,0,1.91.13c3.89,0,7.48-1.56,9.44-4.1h0l-1.16-.31L46,10.06l-1.26-.15-1.69-.05c-.79,0-1.82,0-2.46-.09-1.41-.11-2.76-.32-2.78-.32a36.44,36.44,0,0,1-4.38-.94c-.8-.23-1.67-.53-2.78-1a4.58,4.58,0,0,0-.56-.16A10.29,10.29,0,0,0,28,7.15c-5,0-9.06,3.71-9.06,8.27A7.85,7.85,0,0,0,21.22,21C21.23,20.89,21.8,18.65,21.83,18.55Z"/><path class="cls-5" d="M23.6,34a31.55,31.55,0,0,0,2.2-5.26,33,33,0,0,0,1.06-4.25c.06-.34.08-.85.16-1.33a16,16,0,0,1,5.5-9.54l-.28-.1-.37-.11-.39-.1-.79-.14-.88-.08-.86,0a8.54,8.54,0,0,0-3.4.87,6.88,6.88,0,0,0-2.09,1.65c-.08.1-.32.45-.37.54l-.11.21a21,21,0,0,0-1.52,4.93,22.2,22.2,0,0,0,1.72,13.44Z"/><path class="cls-3" d="M28.28,37.28a8.59,8.59,0,0,1,1.09-3.07l.05-.08a12.35,12.35,0,0,0,1.82-3.89c.95-3.23.85-8.27-2.43-11.44a15.73,15.73,0,0,0-.89,2.13,14.19,14.19,0,0,0-.6,2.5c-.05.36-.11.72-.17,1.08a33.6,33.6,0,0,1-1.07,4.29,28.94,28.94,0,0,1-2.79,6.3l-.41.79a8.89,8.89,0,0,0,1,8.53,8.42,8.42,0,0,0,11.58,2,32.65,32.65,0,0,1-4.73-2.2A7,7,0,0,1,28.28,37.28Z"/><path class="cls-3" d="M56.33,43.44c-.06-.18-.24-.57-.26-.61l0,0a3.38,3.38,0,0,0-5.81-.24c2.83.55,3.15,3.14.47,4l-1.94.58a15.91,15.91,0,0,1-4.58.64c2.61,6.33,12.48,4.56,12.48-2.31a5.93,5.93,0,0,0-.28-1.83Z"/><path class="cls-6" d="M54.14,39.59l-1.07.22c-.92.2-2.64.7-2.69.72-.33.13-1.23.41-1.49.51a11,11,0,0,1-2,.57h0a18.07,18.07,0,0,1-2.06.31l-.25,0s-.33,0-.49,0h-.71a16.79,16.79,0,0,1-3.48-.39l-.13,0h0a17.68,17.68,0,0,1-2.31-.69h0c-.14,0-2.06-.86-3.19.47a2.31,2.31,0,0,0-.18,2.6,3.73,3.73,0,0,0,.23.37l.24.35-.41-.13a5,5,0,0,1-3.41-4.83c0-.13,0-.65.05-.73s.08-.45.09-.51l.16-.55.29-.66.15-.27a16,16,0,0,1-1.92-2.35,6.59,6.59,0,0,0-.32.65c-.12.27-.26.68-.27.7-.16.48-1.26,4.22,1,7.07a4.89,4.89,0,0,0,1,1,23.74,23.74,0,0,0,4.36,2l.83.3A25.83,25.83,0,0,0,44,47.49h0a23.28,23.28,0,0,0,6.26-1.08l.28-.08c2.49-.66,2.31-3.12-.52-3.54l-.2,0,0-.08a3.74,3.74,0,0,1,3.25-2,3.59,3.59,0,0,1,3.24,2l0,.05a.62.62,0,0,1,.06.12l.14.33a6.41,6.41,0,0,0,.52-.39A22.22,22.22,0,0,0,60.84,39c-.29,0-.58,0-.87,0A34.7,34.7,0,0,0,54.14,39.59Z"/><path class="cls-3" d="M65.74,23.05c0,.39.12,2,.12,2.27a25.53,25.53,0,0,1-.36,4l-.1.29a7.84,7.84,0,0,1-4.63,3.83,9.16,9.16,0,0,1-2.93.53h-.26c-.42,0-.77-.08-1.44-.08a15.1,15.1,0,0,0-3.18.37,13.36,13.36,0,0,0-1.84.51c-3.61,1.27-6.43,3.9-7.4,6.89.1,0,.84,0,1.06,0h0l1-.1c.33,0,.67-.1,1-.17a16.35,16.35,0,0,0,1.85-.53c.56-.2,1.09-.38,1.61-.54.89-.27,1.82-.52,2.78-.73.7-.15,1.38-.28,1.83-.35A34.55,34.55,0,0,1,60,38.69h1.45a5,5,0,0,0,.65,0,9.46,9.46,0,0,0,2.12-.48h0C71.58,35.59,72.31,26.32,65.74,23.05Z"/><path class="cls-7" d="M9,79.18a24.47,24.47,0,0,1-4.61-.31A5.64,5.64,0,0,1,2,77.82,4.63,4.63,0,0,1,.46,75.63,11.32,11.32,0,0,1,0,72.05V66.76a13,13,0,0,1,.46-3.87A4.54,4.54,0,0,1,2,60.64a5.71,5.71,0,0,1,2.44-1A24.73,24.73,0,0,1,9,59.28h6.49a24.58,24.58,0,0,1,4.59.31,5.81,5.81,0,0,1,2.45,1A4.55,4.55,0,0,1,24,62.85a11.69,11.69,0,0,1,.47,3.67v5.42A11.72,11.72,0,0,1,24,75.62a4.52,4.52,0,0,1-1.47,2.2,5.51,5.51,0,0,1-2.41,1.05,24.57,24.57,0,0,1-4.63.31Zm7.61-17.76H7.83a9.89,9.89,0,0,0-2.9.33,3.09,3.09,0,0,0-1.59,1.08,3.37,3.37,0,0,0-.59,1.3,13,13,0,0,0-.17,2.5v5.1a13.06,13.06,0,0,0,.17,2.5,3.44,3.44,0,0,0,.59,1.3,3.15,3.15,0,0,0,1.59,1.08,10,10,0,0,0,2.9.32h8.79a10,10,0,0,0,2.9-.32,3.15,3.15,0,0,0,1.59-1.08,3.32,3.32,0,0,0,.56-1.25A10.29,10.29,0,0,0,21.84,72v-5.7a10.33,10.33,0,0,0-.17-2.26,3.28,3.28,0,0,0-.56-1.24,3.09,3.09,0,0,0-1.59-1.08A9.89,9.89,0,0,0,16.62,61.42Z"/><path class="cls-7" d="M42.43,70a2.82,2.82,0,0,0-.83-2.33c-.54-.41-1.74-.61-3.6-.61H34.79a6.08,6.08,0,0,0-3.44.73,2.7,2.7,0,0,0-1,2.36v3.19a3.85,3.85,0,0,0,.94,3c.63.54,1.82.81,3.58.81H38.1a6.45,6.45,0,0,0,3.54-.69,2.92,2.92,0,0,0,1-2.49v-.16h2.06v.37a4.66,4.66,0,0,1-1.44,3.81,7.22,7.22,0,0,1-4.6,1.19H34.68a7.78,7.78,0,0,1-4.94-1.31,4.85,4.85,0,0,1-1.61-4V70.35a4.88,4.88,0,0,1,1.61-4A7.76,7.76,0,0,1,34.68,65h3.26q3.51,0,5,1.07a4,4,0,0,1,1.5,3.52V70Z"/><path class="cls-7" d="M51.27,65.2h9v1.86H51.24v7.21A2.93,2.93,0,0,0,52,76.58c.49.42,1.6.63,3.34.63a5.32,5.32,0,0,0,2.83-.52,2.7,2.7,0,0,0,.72-2.26V72.67h1.89v1.76c0,1.74-.43,3-1.31,3.65s-2.42,1-4.64,1A10.2,10.2,0,0,1,52,78.8a4.34,4.34,0,0,1-1.82-1,3,3,0,0,1-.75-1.23,9,9,0,0,1-.22-2.41V67.06h-3V65.2h3V62.06h2.1Z"/><path class="cls-7" d="M70,79.13c-2.36,0-4-.47-5.06-1.39s-1.51-2.49-1.51-4.68V70.91q0-3.16,1.53-4.52T70,65h4.72c2.34,0,4,.46,5,1.37s1.53,2.41,1.53,4.52v2.15q0,3.28-1.51,4.68c-1,.92-2.7,1.39-5.07,1.39Zm.56-2h3.58c2,0,3.33-.29,4-.87s1-1.72,1-3.41V71.19q0-2.44-1-3.3c-.66-.57-2-.86-4-.86H70.51c-2,0-3.3.29-4,.86s-1,1.67-1,3.3v1.63c0,1.69.32,2.83,1,3.41S68.52,77.1,70.51,77.1Z"/><path class="cls-8" d="M85,58.25a.38.38,0,0,0,.37-.38V51.11a1.2,1.2,0,0,1,1.2-1.2h0a1.2,1.2,0,0,1,1.21,1.2v6.76a.38.38,0,0,0,.37.38H95a1.2,1.2,0,0,1,1.2,1.2h0A1.2,1.2,0,0,1,95,60.66H88.18a.37.37,0,0,0-.37.37v6.9a1.21,1.21,0,0,1-1.21,1.2h0a1.2,1.2,0,0,1-1.2-1.2V61a.37.37,0,0,0-.37-.37H78.22A1.21,1.21,0,0,1,77,59.45h0a1.21,1.21,0,0,1,1.21-1.2Z"/></g></g></svg>